<svg width="51px" height="26px" viewBox="0 0 51 26" version="1.1" xmlns="http://www.w3.org/2000/svg" xmlns:xlink="http://www.w3.org/1999/xlink">
    <!-- Generator: Sketch 55.2 (78181) - https://sketchapp.com -->
    <title>Artboard</title> 
    <desc>Created with Sketch.</desc>
    <g id="Artboard" stroke="none" stroke-width="1" fill="none" fill-rule="evenodd">
        <g id="eye_logo" transform="translate(-1.000000, -1.000000)" fill="#1D1D1B" fill-rule="nonzero">
            <path d="M14,9 C11.2385763,9 9,11.2385763 9,14 C9,16.7614237 11.2385763,19 14,19 C16.7614237,19 19,16.7614237 19,14 C19,12.6739176 18.4732158,11.402148 17.5355339,10.4644661 C16.597852,9.5267842 15.3260824,9 14,9 Z M15.5,13 C14.6715729,13 14,12.3284271 14,11.5 C14,10.6715729 14.6715729,10 15.5,10 C16.3284271,10 17,10.6715729 17,11.5 C17,12.3284271 16.3284271,13 15.5,13 Z" id="Shape"></path>
            <path d="M39,1 C33.1868998,1.00390541 28.0829509,4.86657394 26.5,10.46 C24.7329357,4.21600706 18.6319245,0.231403026 12.2043043,1.12340246 C5.77668415,2.0154019 0.991267051,7.51078094 0.991267051,14 C0.991267051,20.4892191 5.77668415,25.9845981 12.2043043,26.8765975 C18.6319245,27.768597 24.7329357,23.7839929 26.5,17.54 C28.3294804,24.004537 34.7834243,28.0101366 41.3883366,26.7803524 C47.993249,25.5505682 52.5730552,19.4905686 51.9533025,12.8007896 C51.3335497,6.1110106 45.7184236,0.995487224 39,1 Z M14,26 C7.372583,26 2,20.627417 2,14 C2,7.372583 7.372583,2 14,2 C20.627417,2 26,7.372583 26,14 C26,17.1825979 24.7357179,20.2348448 22.4852814,22.4852814 C20.2348448,24.7357179 17.1825979,26 14,26 L14,26 Z M39,26 C34.1464531,26 29.7708176,23.0762939 27.9134456,18.5922012 C26.0560736,14.1081085 27.0827427,8.94669458 30.5147186,5.51471863 C33.9466946,2.08274267 39.1081085,1.05607361 43.5922012,2.91344561 C48.0762939,4.77081761 51,9.14645306 51,14 C51,20.627417 45.627417,26 39,26 L39,26 Z" id="Shape"></path>
            <path d="M39,9 C36.9776888,9 35.1545073,10.2182109 34.3806023,12.0865828 C33.6066973,13.9549548 34.0344761,16.1055439 35.4644661,17.5355339 C36.8944561,18.9655239 39.0450452,19.3933027 40.9134172,18.6193977 C42.7817891,17.8454927 44,16.0223112 44,14 C44,11.2385763 41.7614237,9 39,9 Z M40.5,13 C39.6715729,13 39,12.3284271 39,11.5 C39,10.6715729 39.6715729,10 40.5,10 C41.3284271,10 42,10.6715729 42,11.5 C42,12.3284271 41.3284271,13 40.5,13 Z" id="Shape"></path>
        </g>
    </g>
</svg>