<svg width="51" height="24" viewBox="0 0 51 24" fill="none" xmlns="http://www.w3.org/2000/svg">
<g clip-path="url(#clip0)">
<path d="M49.4003 5.91001L36.4103 11C36.2287 10.8128 35.9845 10.6991 35.7244 10.6807C35.4643 10.6622 35.2065 10.7403 35.0003 10.9C34.7801 11.0769 34.638 11.3329 34.6044 11.6133C34.5707 11.8937 34.6482 12.1761 34.8203 12.4C35.0056 12.612 35.2669 12.7424 35.5477 12.763C35.8285 12.7836 36.1061 12.6927 36.3203 12.51L36.4103 12.42L49.4203 17C49.4754 17.0205 49.534 17.0298 49.5928 17.0273C49.6515 17.0248 49.7092 17.0105 49.7623 16.9854C49.8154 16.9602 49.863 16.9246 49.9022 16.8808C49.9413 16.8369 49.9713 16.7856 49.9903 16.73C50 16.6805 50 16.6295 49.9903 16.58C49.9916 16.4885 49.9644 16.3989 49.9124 16.3237C49.8604 16.2484 49.7863 16.1912 49.7003 16.16L37.0003 11.69L49.7303 6.74001C49.8117 6.70448 49.8808 6.64563 49.9289 6.57089C49.9769 6.49615 50.0018 6.40885 50.0003 6.32001C50.013 6.26744 50.013 6.21258 50.0003 6.16001C49.9784 6.10336 49.9453 6.05174 49.9029 6.00825C49.8605 5.96475 49.8097 5.93029 49.7537 5.90693C49.6976 5.88357 49.6374 5.8718 49.5767 5.87233C49.5159 5.87286 49.4559 5.88568 49.4003 5.91001Z" fill="black"/>
<path d="M43.9195 11.85C43.9195 13.5252 43.4227 15.1628 42.492 16.5557C41.5613 17.9486 40.2385 19.0342 38.6908 19.6753C37.1431 20.3163 35.4401 20.4841 33.7971 20.1573C32.1541 19.8304 30.6449 19.0238 29.4603 17.8392C28.2758 16.6546 27.4691 15.1454 27.1422 13.5024C26.8154 11.8594 26.9832 10.1564 27.6242 8.60868C28.2653 7.06099 29.3509 5.73815 30.7438 4.80746C32.1367 3.87676 33.7743 3.38 35.4495 3.38C37.6951 3.38265 39.8479 4.27587 41.4358 5.86373C43.0236 7.45159 43.9168 9.60443 43.9195 11.85ZM27.5795 11.85C27.5755 13.4074 28.0337 14.9309 28.8961 16.2278C29.7585 17.5246 30.9862 18.5365 32.4239 19.1352C33.8616 19.7339 35.4446 19.8926 36.9726 19.5912C38.5005 19.2898 39.9047 18.5418 41.0073 17.442C42.11 16.3422 42.8615 14.9399 43.1668 13.4127C43.4721 11.8856 43.3174 10.3021 42.7223 8.86292C42.1273 7.4237 41.1186 6.19339 39.8239 5.32774C38.5293 4.46209 37.0069 4.00001 35.4495 4C33.3665 4.00263 31.3693 4.82989 29.8945 6.30091C28.4198 7.77193 27.5874 9.76703 27.5795 11.85Z" fill="black"/>
<path d="M46.4795 11.85C46.4795 14.0256 45.8344 16.1523 44.6257 17.9612C43.417 19.7702 41.699 21.1801 39.689 22.0126C37.679 22.8452 35.4673 23.063 33.3335 22.6386C31.1997 22.2142 29.2397 21.1665 27.7013 19.6281C26.1629 18.0898 25.1153 16.1298 24.6909 13.996C24.2664 11.8622 24.4843 9.65044 25.3168 7.64046C26.1494 5.63047 27.5593 3.91251 29.3682 2.70381C31.1772 1.49511 33.3039 0.849976 35.4795 0.849976C36.924 0.849976 38.3544 1.1345 39.689 1.6873C41.0236 2.2401 42.2362 3.05036 43.2577 4.0718C44.2791 5.09325 45.0894 6.30588 45.6422 7.64046C46.195 8.97504 46.4795 10.4054 46.4795 11.85ZM25.6195 11.85C25.6235 13.7933 26.2033 15.6919 27.2859 17.3058C28.3684 18.9197 29.905 20.1765 31.7016 20.9174C33.4981 21.6584 35.4739 21.8502 37.3795 21.4686C39.285 21.0871 41.0346 20.1493 42.4074 18.7738C43.7801 17.3982 44.7144 15.6467 45.0921 13.7404C45.4697 11.8341 45.2739 9.85863 44.5293 8.06359C43.7847 6.26856 42.5248 4.7345 40.9087 3.65525C39.2926 2.576 37.3928 1.99998 35.4495 1.99998C34.1573 2.00129 32.878 2.25711 31.6847 2.75283C30.4913 3.24855 29.4073 3.97446 28.4945 4.88911C27.5817 5.80377 26.858 6.88926 26.3647 8.08361C25.8714 9.27796 25.6182 10.5578 25.6195 11.85Z" fill="black"/>
<path d="M47.3698 11.86C47.3808 11.9446 47.3736 12.0306 47.3488 12.1122C47.3239 12.1938 47.2819 12.2692 47.2256 12.3333C47.1693 12.3974 47.1 12.4487 47.0222 12.4839C46.9445 12.5191 46.8602 12.5373 46.7748 12.5373C46.6895 12.5373 46.6052 12.5191 46.5274 12.4839C46.4497 12.4487 46.3804 12.3974 46.3241 12.3333C46.2678 12.2692 46.2258 12.1938 46.2009 12.1122C46.176 12.0306 46.1688 11.9446 46.1798 11.86V11.8C46.1824 11.6417 46.2464 11.4905 46.3584 11.3786C46.4704 11.2666 46.6215 11.2026 46.7798 11.2C46.8581 11.1987 46.9359 11.2129 47.0087 11.242C47.0814 11.271 47.1477 11.3143 47.2035 11.3692C47.2594 11.4241 47.3037 11.4896 47.334 11.5619C47.3643 11.6341 47.3798 11.7117 47.3798 11.79V11.87L47.3698 11.86ZM45.6598 18C45.6582 18.1095 45.6271 18.2166 45.5698 18.31V18.38C45.5281 18.446 45.4738 18.5031 45.4098 18.548C45.3459 18.5928 45.2737 18.6246 45.1974 18.6413C45.1212 18.658 45.0423 18.6595 44.9655 18.6455C44.8886 18.6316 44.8153 18.6025 44.7498 18.56C44.6169 18.4756 44.5225 18.3423 44.4869 18.1889C44.4514 18.0355 44.4776 17.8743 44.5598 17.74V17.68C44.6287 17.5688 44.7321 17.4832 44.8542 17.4361C44.9762 17.3891 45.1103 17.3833 45.236 17.4195C45.3617 17.4557 45.4722 17.5321 45.5505 17.6369C45.6288 17.7417 45.6707 17.8692 45.6698 18H45.6598ZM45.5698 5.72999C45.5693 5.83159 45.5434 5.93145 45.4946 6.02052C45.4457 6.10958 45.3753 6.18502 45.2898 6.23999C45.1556 6.32226 44.9943 6.34844 44.8409 6.3129C44.6875 6.27735 44.5542 6.18292 44.4698 6.04999V5.98999C44.4273 5.92447 44.3983 5.85117 44.3843 5.77434C44.3703 5.6975 44.3718 5.61866 44.3885 5.54238C44.4053 5.4661 44.437 5.39391 44.4818 5.32998C44.5267 5.26606 44.5838 5.21168 44.6498 5.16999C44.7825 5.08271 44.9444 5.05159 45.1 5.08346C45.2555 5.11532 45.3921 5.20757 45.4798 5.33999V5.40999C45.5384 5.50647 45.5695 5.61712 45.5698 5.72999ZM40.8898 22.2C40.8916 22.3146 40.8605 22.4272 40.8003 22.5247C40.74 22.6222 40.6531 22.7003 40.5498 22.75H40.4798C40.409 22.7835 40.3323 22.8026 40.254 22.8061C40.1758 22.8097 40.0976 22.7976 40.024 22.7706C39.9505 22.7436 39.8831 22.7022 39.8257 22.6489C39.7683 22.5956 39.7221 22.5314 39.6898 22.46C39.6561 22.3885 39.6369 22.311 39.6332 22.232C39.6295 22.153 39.6415 22.074 39.6685 21.9997C39.6954 21.9253 39.7368 21.857 39.7902 21.7988C39.8437 21.7405 39.9081 21.6933 39.9798 21.66H40.0398C40.1847 21.5946 40.3493 21.5883 40.4987 21.6425C40.6482 21.6966 40.7705 21.807 40.8398 21.95C40.8755 22.0284 40.8926 22.1139 40.8898 22.2ZM40.7598 1.51999C40.7798 1.60213 40.7798 1.68784 40.7598 1.76999C40.6904 1.91304 40.5686 2.02395 40.4198 2.07979C40.2709 2.13562 40.1062 2.13211 39.9598 2.06999H39.8998C39.7568 2.00055 39.6459 1.8788 39.59 1.72991C39.5342 1.58102 39.5377 1.41636 39.5998 1.26999C39.6331 1.19826 39.6803 1.13383 39.7386 1.0804C39.7969 1.02697 39.8652 0.985583 39.9395 0.958633C40.0139 0.931682 40.0928 0.919694 40.1718 0.923359C40.2508 0.927023 40.3283 0.946268 40.3998 0.979986H40.4698C40.563 1.03479 40.6393 1.11414 40.6905 1.20937C40.7416 1.3046 40.7656 1.41205 40.7598 1.51999ZM34.5798 23.17C34.5855 23.1964 34.5855 23.2236 34.5798 23.25C34.5599 23.4078 34.4781 23.5511 34.3525 23.6487C34.2268 23.7462 34.0676 23.7898 33.9098 23.77H33.8298C33.6707 23.7474 33.527 23.6626 33.4305 23.5341C33.3339 23.4057 33.2923 23.2441 33.3148 23.085C33.3374 22.9259 33.4222 22.7822 33.5507 22.6856C33.6791 22.589 33.8407 22.5474 33.9998 22.57H34.0698C34.2129 22.5917 34.3433 22.6644 34.437 22.7746C34.5308 22.8849 34.5815 23.0253 34.5798 23.17ZM34.4398 0.599986C34.4412 0.743541 34.3901 0.882655 34.2962 0.991264C34.2023 1.09987 34.0721 1.17053 33.9298 1.18999H33.8198C33.662 1.21386 33.5012 1.17406 33.3727 1.07935C33.2443 0.984648 33.1587 0.84279 33.1348 0.684986C33.111 0.527182 33.1508 0.366359 33.2455 0.237897C33.3402 0.109434 33.482 0.0238552 33.6398 -1.43335e-05H33.7598C33.9162 -0.0230205 34.0753 0.0165859 34.2026 0.110203C34.3299 0.20382 34.4152 0.343888 34.4398 0.499986V0.599986ZM28.7598 20.54C28.7593 20.6822 28.7098 20.8199 28.6198 20.93C28.5682 20.99 28.5051 21.0392 28.4343 21.0748C28.3635 21.1103 28.2864 21.1315 28.2073 21.1371C28.1283 21.1427 28.049 21.1325 27.9739 21.1073C27.8988 21.082 27.8294 21.0422 27.7698 20.99H27.7098C27.6448 20.9399 27.5908 20.8771 27.5511 20.8053C27.5113 20.7336 27.4867 20.6544 27.4788 20.5728C27.4708 20.4911 27.4797 20.4087 27.5049 20.3306C27.53 20.2526 27.5709 20.1805 27.625 20.1188C27.6792 20.0572 27.7453 20.0073 27.8195 19.9722C27.8936 19.9372 27.9742 19.9177 28.0562 19.915C28.1382 19.9123 28.2198 19.9264 28.2961 19.9565C28.3724 19.9866 28.4418 20.032 28.4998 20.09H28.5498C28.6149 20.1457 28.6673 20.2146 28.7036 20.2922C28.7398 20.3699 28.759 20.4543 28.7598 20.54ZM28.6098 3.29999C28.6123 3.38517 28.5955 3.46982 28.5609 3.5477C28.5263 3.62558 28.4747 3.6947 28.4098 3.74999H28.3598C28.3049 3.80562 28.2396 3.84979 28.1675 3.87994C28.0954 3.91009 28.018 3.92562 27.9398 3.92562C27.8617 3.92562 27.7843 3.91009 27.7122 3.87994C27.6401 3.84979 27.5747 3.80562 27.5198 3.74999C27.4099 3.63783 27.3483 3.48704 27.3483 3.32999C27.3483 3.17293 27.4099 3.02214 27.5198 2.90999L27.5798 2.85999C27.638 2.80749 27.706 2.76709 27.7799 2.74116C27.8538 2.71522 27.9321 2.70426 28.0103 2.70891C28.0885 2.71356 28.165 2.73374 28.2353 2.76826C28.3056 2.80279 28.3683 2.85096 28.4198 2.90999C28.4772 2.95791 28.5238 3.01744 28.5566 3.08466C28.5893 3.15187 28.6075 3.22526 28.6098 3.29999ZM25.2798 15.18C25.2787 15.3085 25.2363 15.4333 25.1588 15.5359C25.0814 15.6385 24.9731 15.7136 24.8498 15.75C24.775 15.7744 24.696 15.7834 24.6177 15.7763C24.5393 15.7692 24.4632 15.7463 24.3939 15.7089C24.3247 15.6715 24.2638 15.6203 24.215 15.5586C24.1661 15.4969 24.1304 15.426 24.1098 15.35V15.28C24.0666 15.1275 24.0854 14.9641 24.1622 14.8254C24.239 14.6868 24.3676 14.5842 24.5198 14.54C24.5946 14.5156 24.6736 14.5066 24.752 14.5137C24.8304 14.5207 24.9065 14.5437 24.9757 14.5811C25.0449 14.6185 25.1058 14.6696 25.1547 14.7313C25.2035 14.793 25.2393 14.864 25.2598 14.94V15.01C25.2768 15.065 25.2836 15.1226 25.2798 15.18ZM25.2198 8.71999C25.2294 8.77289 25.2294 8.82708 25.2198 8.87999V8.99999C25.1755 9.15259 25.0734 9.28187 24.9351 9.36031C24.7969 9.43875 24.6336 9.46016 24.4798 9.41999C24.3925 9.40719 24.309 9.37527 24.2354 9.3265C24.1618 9.27774 24.0999 9.21333 24.054 9.13788C24.0082 9.06242 23.9796 8.97778 23.9702 8.88999C23.9608 8.80219 23.9709 8.71342 23.9998 8.62999V8.54999C24.0373 8.40754 24.1259 8.28386 24.2487 8.2025C24.3714 8.12114 24.5199 8.08779 24.6656 8.10879C24.8114 8.1298 24.9444 8.20369 25.0392 8.3164C25.134 8.42911 25.1841 8.57276 25.1798 8.71999H25.2198Z" fill="black"/>
<path d="M0.610258 17.87L13.6103 12.81C13.803 12.999 14.059 13.1098 14.3287 13.1209C14.5984 13.132 14.8627 13.0426 15.0703 12.87C15.1753 12.7827 15.2621 12.6755 15.3258 12.5546C15.3894 12.4337 15.4286 12.3015 15.4412 12.1655C15.4537 12.0294 15.4393 11.8923 15.3988 11.7618C15.3584 11.6313 15.2926 11.5101 15.2053 11.405C15.1179 11.3 15.0108 11.2131 14.8899 11.1495C14.769 11.0858 14.6368 11.0466 14.5007 11.0341C14.3647 11.0216 14.2275 11.0359 14.097 11.0764C13.9665 11.1169 13.8453 11.1827 13.7403 11.27C13.7064 11.2927 13.6788 11.3237 13.6603 11.36L0.600258 6.73001C0.543351 6.70615 0.482145 6.69425 0.420444 6.69504C0.358743 6.69584 0.297865 6.70932 0.241593 6.73464C0.185322 6.75997 0.13486 6.79659 0.0933428 6.84224C0.0518257 6.88789 0.0201412 6.94159 0.000258221 7.00001C-0.00920066 7.04956 -0.00920066 7.10046 0.000258221 7.15001C0.000518505 7.24371 0.0293858 7.33509 0.082998 7.41193C0.13661 7.48878 0.212411 7.54742 0.300258 7.58001L13.0003 12.08L0.290258 17C0.184523 17.0464 0.10068 17.1317 0.0560768 17.2382C0.011474 17.3447 0.00952549 17.4643 0.0506345 17.5722C0.0917436 17.6802 0.172764 17.7681 0.27693 17.818C0.381097 17.8678 0.500438 17.8757 0.610258 17.84V17.87Z" fill="black"/>
<path d="M6.10059 11.93C6.09861 10.254 6.59394 8.61499 7.52388 7.22057C8.45381 5.82615 9.77654 4.73898 11.3246 4.09667C12.8727 3.45436 14.5766 3.28578 16.2206 3.61228C17.8645 3.93878 19.3746 4.74567 20.5598 5.93082C21.7449 7.11597 22.5518 8.6261 22.8783 10.2701C23.2048 11.914 23.0362 13.6179 22.3939 15.166C21.7516 16.7141 20.6644 18.0368 19.27 18.9667C17.8756 19.8967 16.2367 20.392 14.5606 20.39C12.3177 20.3874 10.1674 19.4952 8.58139 17.9092C6.99541 16.3232 6.10324 14.1729 6.10059 11.93ZM22.4306 11.93C22.4306 10.3735 21.969 8.85189 21.1043 7.55767C20.2395 6.26346 19.0104 5.25474 17.5723 4.65908C16.1343 4.06342 14.5519 3.90756 13.0252 4.21123C11.4986 4.5149 10.0963 5.26444 8.99566 6.36508C7.89502 7.46572 7.14548 8.86802 6.84181 10.3946C6.53815 11.9213 6.694 13.5037 7.28966 14.9417C7.88532 16.3798 8.89404 17.6089 10.1883 18.4737C11.4825 19.3384 13.0041 19.8 14.5606 19.8C16.647 19.7974 18.6473 18.9674 20.1226 17.492C21.5979 16.0167 22.4279 14.0165 22.4306 11.93Z" fill="black"/>
<path d="M3.53027 11.93C3.53027 9.7544 4.17541 7.62767 5.38411 5.81873C6.5928 4.00978 8.31077 2.59989 10.3208 1.76732C12.3307 0.934759 14.5425 0.716922 16.6763 1.14136C18.8101 1.5658 20.7701 2.61345 22.3084 4.15182C23.8468 5.6902 24.8945 7.65021 25.3189 9.784C25.7433 11.9178 25.5255 14.1295 24.6929 16.1395C23.8604 18.1495 22.4505 19.8675 20.6415 21.0762C18.8326 22.2849 16.7059 22.93 14.5303 22.93C11.6129 22.93 8.815 21.7711 6.7521 19.7082C4.6892 17.6453 3.53027 14.8474 3.53027 11.93ZM24.4003 11.93C24.4023 9.9834 23.8268 8.07996 22.7468 6.46046C21.6668 4.84097 20.1307 3.5782 18.3328 2.8319C16.535 2.0856 14.5562 1.8893 12.6467 2.26785C10.7373 2.6464 8.98304 3.58278 7.60589 4.95853C6.22874 6.33428 5.29057 8.08758 4.91008 9.99663C4.52959 11.9057 4.72387 13.8847 5.46835 15.6833C6.21282 17.4819 7.47403 19.0193 9.09242 20.101C10.7108 21.1826 12.6137 21.76 14.5603 21.76C17.1683 21.76 19.6696 20.7247 21.5147 18.8815C23.3597 17.0383 24.3976 14.538 24.4003 11.93Z" fill="black"/>
<path d="M2.64063 11.91C2.64063 11.7509 2.70384 11.5983 2.81636 11.4857C2.92888 11.3732 3.0815 11.31 3.24062 11.31C3.39975 11.31 3.55237 11.3732 3.66489 11.4857C3.77741 11.5983 3.84062 11.7509 3.84062 11.91V12C3.84195 12.0783 3.82767 12.1561 3.79862 12.2289C3.76956 12.3016 3.72631 12.3678 3.67139 12.4237C3.61647 12.4795 3.55098 12.5239 3.47874 12.5542C3.4065 12.5844 3.32895 12.6 3.25062 12.6C3.17099 12.6013 3.0919 12.5868 3.01794 12.5572C2.94399 12.5277 2.87666 12.4837 2.81988 12.4278C2.7631 12.372 2.71801 12.3054 2.68723 12.232C2.65646 12.1585 2.64061 12.0797 2.64063 12V11.92V11.91ZM4.36063 5.83001C4.36094 5.71714 4.39206 5.6065 4.45062 5.51001V5.44001C4.48853 5.36463 4.5419 5.29809 4.60727 5.24474C4.67263 5.19138 4.74851 5.15242 4.82996 5.13038C4.9114 5.10834 4.99658 5.10373 5.07993 5.11684C5.16328 5.12996 5.24292 5.1605 5.31367 5.20649C5.38441 5.25247 5.44466 5.31285 5.49048 5.3837C5.5363 5.45455 5.56667 5.53426 5.57959 5.61764C5.59252 5.70102 5.58771 5.78619 5.56549 5.86758C5.54327 5.94898 5.50413 6.02477 5.45062 6.09001C5.38217 6.20049 5.27969 6.28575 5.15861 6.33298C5.03753 6.3802 4.90438 6.38684 4.7792 6.35188C4.65403 6.31692 4.54358 6.24226 4.46449 6.13913C4.3854 6.036 4.34193 5.90997 4.34063 5.78001L4.36063 5.83001ZM4.44062 18C4.43976 17.8692 4.48168 17.7417 4.55999 17.6369C4.6383 17.5321 4.74871 17.4558 4.87441 17.4195C5.00011 17.3833 5.1342 17.3891 5.25628 17.4362C5.37835 17.4832 5.48172 17.5688 5.55063 17.68V17.74C5.63532 17.8734 5.66494 18.0345 5.63323 18.1893C5.60152 18.3442 5.51096 18.4806 5.38063 18.57C5.31433 18.6128 5.24025 18.642 5.16264 18.6561C5.08502 18.6702 5.00539 18.6688 4.9283 18.6521C4.85121 18.6354 4.77817 18.6037 4.71336 18.5587C4.64856 18.5137 4.59326 18.4564 4.55063 18.39V18.32C4.48124 18.2276 4.44275 18.1156 4.44062 18ZM9.12063 1.57001C9.11493 1.45209 9.14416 1.33511 9.20464 1.23372C9.26511 1.13233 9.35416 1.05103 9.46063 1.00001H9.54063C9.67556 0.973549 9.8155 0.994241 9.937 1.05862C10.0585 1.123 10.1542 1.22717 10.2081 1.35368C10.262 1.48019 10.2708 1.62137 10.233 1.75359C10.1952 1.88581 10.1132 2.00105 10.0006 2.08001H9.94062C9.86909 2.11373 9.7916 2.13297 9.7126 2.13664C9.63361 2.1403 9.55467 2.12831 9.48032 2.10136C9.40598 2.07441 9.33769 2.03303 9.27939 1.9796C9.2211 1.92616 9.17394 1.86173 9.14063 1.79001C9.11968 1.71868 9.11288 1.64395 9.12063 1.57001ZM9.25063 22.25C9.25133 22.1632 9.27185 22.0777 9.31063 22C9.34292 21.9286 9.38911 21.8644 9.44649 21.8111C9.50387 21.7578 9.57129 21.7164 9.64483 21.6894C9.71837 21.6624 9.79655 21.6503 9.8748 21.6539C9.95306 21.6574 10.0298 21.6765 10.1006 21.71H10.1706C10.242 21.7423 10.3062 21.7885 10.3595 21.8459C10.4129 21.9033 10.4542 21.9707 10.4812 22.0442C10.5082 22.1178 10.5203 22.1959 10.5168 22.2742C10.5132 22.3524 10.4941 22.4292 10.4606 22.5C10.3951 22.6441 10.2754 22.7565 10.1274 22.8127C9.97943 22.8689 9.81525 22.8643 9.67063 22.8H9.60063C9.4947 22.7529 9.40501 22.6756 9.34276 22.5777C9.28052 22.4799 9.24847 22.3659 9.25063 22.25ZM15.4406 0.60001V0.52001C15.4505 0.440928 15.4759 0.364596 15.5156 0.295471C15.5552 0.226346 15.6083 0.165812 15.6716 0.117404C15.7349 0.0689957 15.8072 0.0336829 15.8843 0.0135271C15.9614 -0.00662871 16.0417 -0.0112238 16.1206 1.02334e-05H16.1906C16.2694 0.0124858 16.345 0.0403587 16.413 0.0820374C16.481 0.123716 16.5402 0.178385 16.5871 0.242921C16.634 0.307458 16.6677 0.380599 16.6863 0.458169C16.7049 0.535738 16.7081 0.616217 16.6956 0.69501C16.6831 0.773803 16.6553 0.849368 16.6136 0.917389C16.5719 0.98541 16.5173 1.04456 16.4527 1.09145C16.3882 1.13834 16.315 1.17207 16.2375 1.19069C16.1599 1.20932 16.0794 1.21249 16.0006 1.20001C15.8477 1.19225 15.7037 1.12531 15.5992 1.01334C15.4947 0.901367 15.4378 0.753146 15.4406 0.60001ZM15.5706 23.17C15.5717 23.0255 15.625 22.8863 15.7205 22.7779C15.816 22.6695 15.9474 22.5993 16.0906 22.58H16.1906C16.2688 22.5682 16.3485 22.5719 16.4252 22.5909C16.5019 22.6098 16.5741 22.6437 16.6377 22.6906C16.7013 22.7375 16.7551 22.7965 16.7959 22.8642C16.8367 22.9318 16.8638 23.0069 16.8756 23.085C16.8874 23.1631 16.8838 23.2428 16.8648 23.3196C16.8458 23.3963 16.8119 23.4685 16.765 23.5321C16.7181 23.5957 16.6591 23.6495 16.5915 23.6903C16.5238 23.7311 16.4488 23.7582 16.3706 23.77H16.2606C16.1825 23.7813 16.1029 23.7771 16.0263 23.7575C15.9498 23.738 15.8779 23.7036 15.8147 23.6562C15.7516 23.6088 15.6984 23.5494 15.6582 23.4814C15.618 23.4135 15.5917 23.3382 15.5806 23.26C15.5724 23.2308 15.5691 23.2004 15.5706 23.17ZM21.2606 3.23001C21.2595 3.08751 21.3091 2.94926 21.4006 2.84001C21.4514 2.78028 21.5136 2.73128 21.5836 2.69586C21.6535 2.66044 21.7298 2.63933 21.808 2.63374C21.8862 2.62815 21.9648 2.63821 22.0391 2.66333C22.1133 2.68844 22.1819 2.72811 22.2406 2.78001L22.3006 2.83001C22.3607 2.88169 22.4099 2.94475 22.4454 3.01555C22.481 3.08635 22.5021 3.16349 22.5077 3.24251C22.5133 3.32153 22.5032 3.40088 22.4779 3.47597C22.4527 3.55106 22.4128 3.62041 22.3606 3.68001C22.3057 3.73564 22.2403 3.77982 22.1682 3.80997C22.0961 3.84012 22.0188 3.85564 21.9406 3.85564C21.8625 3.85564 21.7851 3.84012 21.713 3.80997C21.6409 3.77982 21.5755 3.73564 21.5206 3.68001H21.4606C21.3988 3.62228 21.3492 3.55267 21.3148 3.47536C21.2805 3.39805 21.262 3.3146 21.2606 3.23001ZM21.4006 20.47C21.4009 20.3852 21.4188 20.3014 21.4532 20.2239C21.4876 20.1465 21.5378 20.077 21.6006 20.02V19.97C21.6596 19.9172 21.7284 19.8766 21.8032 19.8506C21.8779 19.8245 21.957 19.8135 22.036 19.8181C22.115 19.8228 22.1923 19.843 22.2635 19.8776C22.3347 19.9123 22.3983 19.9607 22.4506 20.02C22.5031 20.0781 22.5435 20.1461 22.5695 20.2201C22.5954 20.294 22.6064 20.3723 22.6017 20.4505C22.597 20.5287 22.5769 20.6052 22.5423 20.6755C22.5078 20.7458 22.4596 20.8085 22.4006 20.86L22.3506 20.92C22.2291 21.0229 22.0722 21.0742 21.9134 21.063C21.7546 21.0518 21.6065 20.979 21.5006 20.86C21.4218 20.7461 21.3863 20.6078 21.4006 20.47ZM24.7406 8.59001C24.7445 8.44875 24.7982 8.3134 24.8921 8.20782C24.9861 8.10224 25.1143 8.03321 25.2541 8.01289C25.394 7.99257 25.5365 8.02227 25.6566 8.09674C25.7767 8.17122 25.8667 8.2857 25.9106 8.42001V8.49001C25.9363 8.56645 25.9463 8.64727 25.94 8.72766C25.9337 8.80804 25.9113 8.88633 25.8741 8.95786C25.8368 9.02938 25.7856 9.09267 25.7234 9.14395C25.6612 9.19522 25.5892 9.23343 25.5119 9.25629C25.4346 9.27915 25.3535 9.28619 25.2734 9.27699C25.1933 9.2678 25.1158 9.24255 25.0457 9.20276C24.9756 9.16297 24.9142 9.10946 24.8652 9.04541C24.8162 8.98137 24.7807 8.90811 24.7606 8.83001V8.77001C24.749 8.71066 24.7423 8.65046 24.7406 8.59001ZM24.8006 15.05C24.7915 14.9971 24.7915 14.943 24.8006 14.89V14.82C24.8448 14.6678 24.9474 14.5392 25.0861 14.4624C25.2247 14.3856 25.3881 14.3667 25.5406 14.41C25.6156 14.4308 25.6858 14.4662 25.747 14.5142C25.8083 14.5622 25.8594 14.6218 25.8976 14.6897C25.9357 14.7575 25.96 14.8323 25.9691 14.9095C25.9782 14.9868 25.9719 15.0652 25.9506 15.14V15.22C25.9067 15.3543 25.8167 15.4688 25.6966 15.5433C25.5765 15.6178 25.434 15.6474 25.2941 15.6271C25.1543 15.6068 25.0261 15.5378 24.9321 15.4322C24.8382 15.3266 24.7845 15.1913 24.7806 15.05H24.8006Z" fill="black"/>
</g>
<defs>
<clipPath id="clip0">
<rect width="50.02" height="23.77" fill="white"/>
</clipPath>
</defs>
</svg>
