<svg width="48" height="25" viewBox="0 0 48 25" fill="none" xmlns="http://www.w3.org/2000/svg">
<g clip-path="url(#clip0)">
<path d="M35.06 0C37.4452 0 39.7769 0.707307 41.7602 2.03248C43.7434 3.35765 45.2892 5.24116 46.202 7.44484C47.1148 9.64851 47.3536 12.0734 46.8883 14.4128C46.4229 16.7522 45.2743 18.9011 43.5877 20.5877C41.9011 22.2743 39.7522 23.4229 37.4128 23.8883C35.0734 24.3536 32.6485 24.1148 30.4448 23.202C28.2412 22.2892 26.3576 20.7434 25.0325 18.7602C23.7073 16.7769 23 14.4452 23 12.06C23 8.86149 24.2706 5.79398 26.5323 3.53229C28.794 1.2706 31.8615 0 35.06 0V0ZM35.06 22.29C37.0857 22.29 39.0659 21.6892 40.7501 20.5636C42.4343 19.4379 43.7467 17.8381 44.5215 15.9664C45.2962 14.0947 45.4984 12.0352 45.1025 10.0486C44.7066 8.06196 43.7303 6.23738 42.2972 4.80569C40.8641 3.374 39.0386 2.39952 37.0516 2.00554C35.0646 1.61156 33.0053 1.81577 31.1344 2.59235C29.2634 3.36892 27.6649 4.68296 26.5409 6.36824C25.4169 8.05351 24.818 10.0343 24.82 12.06C24.8227 14.7741 25.9027 17.3761 27.8228 19.2943C29.7428 21.2125 32.3459 22.29 35.06 22.29ZM27 16C27.1594 15.5734 27.4233 15.1937 27.7676 14.8956C28.1119 14.5976 28.5255 14.3907 28.9706 14.2941C29.4156 14.1974 29.8777 14.214 30.3146 14.3424C30.7516 14.4707 31.1493 14.7067 31.4713 15.0287C31.7933 15.3507 32.0293 15.7484 32.1576 16.1854C32.286 16.6223 32.3026 17.0844 32.2059 17.5294C32.1093 17.9745 31.9024 18.3881 31.6044 18.7324C31.3063 19.0767 30.9266 19.3406 30.5 19.5C31.6884 19.8992 32.9767 19.8851 34.1561 19.46C35.3354 19.0348 36.3364 18.2237 36.9968 17.158C37.6571 16.0924 37.9379 14.8349 37.7936 13.5896C37.6494 12.3444 37.0885 11.1844 36.2021 10.2979C35.3156 9.41149 34.1556 8.85064 32.9104 8.70638C31.6651 8.56212 30.4076 8.84294 29.342 9.50325C28.2763 10.1636 27.4651 11.1646 27.04 12.3439C26.6149 13.5233 26.6008 14.8116 27 16Z" fill="black"/>
<path d="M0.000149321 12.06C-0.0117302 9.67225 0.685466 7.3347 2.00339 5.34356C3.32132 3.35243 5.20066 1.79733 7.40326 0.875334C9.60586 -0.0466663 12.0326 -0.294072 14.3759 0.164468C16.7193 0.623008 18.8738 1.76685 20.5664 3.45106C22.259 5.13527 23.4136 7.28403 23.8838 9.62506C24.3541 11.9661 24.1188 14.394 23.2078 16.6012C22.2968 18.8084 20.7511 20.6954 18.7665 22.0233C16.782 23.3511 14.4479 24.06 12.0602 24.06C8.87281 24.0574 5.81588 22.7942 3.55648 20.546C1.29707 18.2979 0.0186333 15.2473 0.000149321 12.06ZM22.2901 12.06C22.2921 10.0339 21.693 8.0527 20.5686 6.36721C19.4441 4.68172 17.845 3.36768 15.9734 2.5914C14.1019 1.81512 12.0422 1.61149 10.0549 2.00628C8.06758 2.40108 6.24207 3.37655 4.80938 4.80924C3.37669 6.24193 2.40122 8.06744 2.00643 10.0547C1.61163 12.042 1.81526 14.1018 2.59154 15.9733C3.36782 17.8448 4.68186 19.444 6.36735 20.5684C8.05284 21.6929 10.034 22.292 12.0602 22.29C14.7725 22.2874 17.373 21.2087 19.2909 19.2908C21.2089 17.3729 22.2875 14.7724 22.2901 12.06ZM16.0001 20.16C15.5736 20.0006 15.1938 19.7367 14.8958 19.3924C14.5977 19.0481 14.3909 18.6345 14.2942 18.1895C14.1975 17.7444 14.2141 17.2823 14.3425 16.8454C14.4709 16.4085 14.7069 16.0107 15.0289 15.6887C15.3509 15.3667 15.7486 15.1307 16.1855 15.0024C16.6224 14.874 17.0846 14.8574 17.5296 14.9541C17.9746 15.0507 18.3882 15.2576 18.7325 15.5556C19.0768 15.8537 19.3408 16.2334 19.5001 16.66C19.8994 15.4717 19.8853 14.1833 19.4601 13.0039C19.035 11.8246 18.2238 10.8236 17.1582 10.1633C16.0926 9.50295 14.8351 9.22213 13.5898 9.36639C12.3445 9.51064 11.1845 10.0715 10.2981 10.9579C9.41164 11.8444 8.85079 13.0044 8.70653 14.2497C8.56227 15.4949 8.84309 16.7524 9.5034 17.818C10.1637 18.8837 11.1648 19.6949 12.3441 20.12C13.5234 20.5451 14.8118 20.5592 16.0001 20.16Z" fill="black"/>
</g>
<defs>
<clipPath id="clip0">
<rect width="47.11" height="24.11" fill="white"/>
</clipPath>
</defs>
</svg>
