<svg width="54" height="23" viewBox="0 0 54 23" fill="none" xmlns="http://www.w3.org/2000/svg">
<g clip-path="url(#clip0)">
<path d="M52.9998 10.85C52.9998 10.85 51.8098 8.62003 51.4498 7.64003C50.5044 5.32417 48.8748 3.35192 46.7788 1.98675C44.6828 0.621571 42.2201 -0.0715311 39.7198 2.70316e-05C34.1498 2.70316e-05 29.2498 3.42003 27.8098 8.33003C27.4526 9.19127 27.0175 10.0181 26.5098 10.8L26.2598 11.22L26.4898 11.65C26.4898 11.65 27.6698 13.87 28.0198 14.83C28.9586 17.1466 30.5815 19.1218 32.6719 20.4922C34.7624 21.8626 37.221 22.563 39.7198 22.5C42.1404 22.5467 44.5219 21.8855 46.5719 20.5976C48.622 19.3096 50.2513 17.451 51.2598 15.25C51.7198 14.15 52.9598 11.65 52.9698 11.63L53.1598 11.24L52.9998 10.85ZM49.6898 14.6C48.8101 16.4968 47.3944 18.0945 45.6174 19.1963C43.8404 20.298 41.7798 20.8555 39.6898 20.8C37.5401 20.8642 35.4218 20.2717 33.6174 19.1015C31.813 17.9313 30.408 16.239 29.5898 14.25C29.1711 13.2267 28.7005 12.2254 28.1798 11.25C28.6669 10.4674 29.0788 9.64039 29.4098 8.78003C30.6698 4.62003 34.8998 1.70003 39.7198 1.70003C41.8669 1.63568 43.9828 2.22582 45.7867 3.3921C47.5906 4.55839 48.9972 6.24567 49.8198 8.23003C50.2486 9.25381 50.7292 10.2551 51.2598 11.23C50.8798 12 50.0598 13.7 49.6898 14.6Z" fill="black"/>
<path d="M43.4503 9.61003C42.8369 9.61323 42.2459 9.37945 41.8007 8.95747C41.3555 8.53549 41.0904 7.95789 41.0607 7.34517C41.031 6.73246 41.2391 6.13195 41.6415 5.66892C42.0438 5.2059 42.6095 4.91612 43.2203 4.86003C41.6833 4.04621 39.9021 3.82137 38.211 4.22772C36.52 4.63407 35.0354 5.64367 34.036 7.067C33.0365 8.49033 32.591 10.2295 32.7829 11.9581C32.9748 13.6866 33.7911 15.2857 35.0784 16.4551C36.3657 17.6245 38.0356 18.2838 39.7746 18.3093C41.5136 18.3348 43.2021 17.7247 44.5232 16.5935C45.8442 15.4624 46.707 13.8879 46.9495 12.1657C47.192 10.4435 46.7976 8.69204 45.8403 7.24003C45.8325 7.86961 45.5775 8.47089 45.1304 8.91423C44.6833 9.35757 44.08 9.60746 43.4503 9.61003Z" fill="black"/>
<path d="M0.21 10.85C0.21 10.85 1.4 8.62001 1.76 7.64001C2.72014 5.32434 4.36012 3.35438 6.46334 1.99032C8.56656 0.62626 11.0341 -0.06773 13.54 9.4627e-06C19.15 9.4627e-06 24.08 3.42001 25.54 8.33001C25.8971 9.19126 26.3323 10.018 26.84 10.8L27.1 11.22L26.87 11.65C26.87 11.65 25.68 13.87 25.32 14.83C23.62 19.42 18.88 22.5 13.54 22.5C11.1082 22.5509 8.71431 21.8923 6.65073 20.6048C4.58715 19.3173 2.94329 17.4566 1.92 15.25C1.46 14.15 0.21 11.65 0.2 11.63L0 11.24L0.21 10.85ZM3.5 14.6C4.38899 16.4896 5.80673 18.081 7.58157 19.1814C9.3564 20.2817 11.4122 20.844 13.5 20.8C15.6595 20.8687 17.7888 20.279 19.6052 19.1091C21.4217 17.9392 22.8393 16.2445 23.67 14.25C24.092 13.2265 24.566 12.2252 25.09 11.25C24.5996 10.4677 24.1845 9.64063 23.85 8.78001C22.66 4.62001 18.4 1.70001 13.54 1.70001C11.3831 1.63112 9.25607 2.2185 7.44016 3.38446C5.62425 4.55043 4.20498 6.24008 3.37 8.23001C3.06 9.06001 2.29 10.55 1.92 11.23C2.3 12 3.12 13.7 3.5 14.6Z" fill="black"/>
<path d="M9.78022 9.61003C10.3927 9.61056 10.9819 9.37493 11.4251 8.95215C11.8683 8.52937 12.1314 7.95199 12.1597 7.34014C12.1881 6.72829 11.9794 6.12907 11.5772 5.66713C11.175 5.20519 10.6102 4.91611 10.0002 4.86003C11.3959 4.12065 12.9955 3.85932 14.5538 4.11607C16.1122 4.37282 17.5435 5.13349 18.6281 6.2815C19.7128 7.42952 20.3912 8.90154 20.5592 10.472C20.7272 12.0424 20.3756 13.6246 19.5583 14.9761C18.7411 16.3276 17.5032 17.3739 16.0343 17.9545C14.5655 18.5351 12.9469 18.618 11.4264 18.1907C9.90592 17.7633 8.56753 16.8491 7.61635 15.5882C6.66516 14.3274 6.15366 12.7894 6.16022 11.21C6.15627 9.78742 6.57383 8.39553 7.36022 7.21003C7.35887 7.52727 7.42069 7.8416 7.54207 8.1347C7.66346 8.42781 7.84199 8.69381 8.06724 8.9172C8.29249 9.14059 8.55997 9.3169 8.85407 9.43585C9.14816 9.5548 9.463 9.61401 9.78022 9.61003Z" fill="black"/>
</g>
<defs>
<clipPath id="clip0">
<rect width="53.16" height="22.5" fill="white"/>
</clipPath>
</defs>
</svg>
