<svg width="48" height="25" viewBox="0 0 48 25" fill="none" xmlns="http://www.w3.org/2000/svg">
<g clip-path="url(#clip0)">
<path d="M35.0603 24.11C32.67 24.1219 30.3301 23.4232 28.3376 22.1026C26.3452 20.782 24.7902 18.8991 23.8699 16.693C22.9497 14.4869 22.7058 12.0571 23.1693 9.71207C23.6327 7.36708 24.7825 5.2127 26.4727 3.52247C28.163 1.83225 30.3173 0.682422 32.6623 0.218998C35.0073 -0.244425 37.4371 -0.000542521 39.6432 0.919678C41.8493 1.8399 43.7322 3.39495 45.0528 5.38737C46.3734 7.3798 47.0722 9.71972 47.0603 12.11C47.0445 15.2878 45.7752 18.3309 43.5281 20.5779C41.2811 22.8249 38.238 24.0943 35.0603 24.11ZM35.0603 1.82003C33.0346 1.81805 31.0538 2.41694 29.3685 3.54092C27.6833 4.6649 26.3692 6.26348 25.5926 8.13442C24.8161 10.0054 24.6118 12.0646 25.0058 14.0516C25.3998 16.0386 26.3743 17.8642 27.806 19.2973C29.2377 20.7304 31.0622 21.7066 33.0489 22.1025C35.0355 22.4985 37.095 22.2963 38.9667 21.5215C40.8384 20.7468 42.4382 19.4343 43.5638 17.7501C44.6895 16.0659 45.2903 14.0857 45.2903 12.06C45.2876 9.34676 44.2093 6.74522 42.2917 4.82571C40.374 2.9062 37.7736 1.82532 35.0603 1.82003ZM43.1603 8.08003C43.0009 8.50661 42.7369 8.88634 42.3927 9.1844C42.0484 9.48246 41.6347 9.68931 41.1897 9.78598C40.7447 9.88264 40.2826 9.86603 39.8456 9.73767C39.4087 9.60931 39.011 9.3733 38.689 9.0513C38.367 8.72929 38.131 8.33159 38.0026 7.89467C37.8743 7.45775 37.8577 6.99559 37.9543 6.55058C38.051 6.10557 38.2579 5.69196 38.5559 5.34767C38.854 5.00337 39.2337 4.73943 39.6603 4.58003C38.4719 4.18082 37.1835 4.19493 36.0042 4.62005C34.8249 5.04518 33.8238 5.85638 33.1635 6.92199C32.5032 7.98761 32.2224 9.2451 32.3667 10.4904C32.5109 11.7357 33.0718 12.8957 33.9582 13.7821C34.8447 14.6685 36.0046 15.2294 37.2499 15.3737C38.4952 15.5179 39.7527 15.2371 40.8183 14.5768C41.8839 13.9165 42.6951 12.9154 43.1203 11.7361C43.5454 10.5568 43.5595 9.26838 43.1603 8.08003Z" fill="black"/>
<path d="M12.0603 24.11C9.66998 24.1219 7.33005 23.4232 5.33763 22.1026C3.3452 20.782 1.79016 18.8991 0.869935 16.693C-0.0502861 14.4869 -0.294168 12.0571 0.169255 9.71207C0.632678 7.36708 1.7825 5.2127 3.47273 3.52247C5.16295 1.83225 7.31734 0.682422 9.66232 0.218998C12.0073 -0.244425 14.4371 -0.000542521 16.6432 0.919678C18.8493 1.8399 20.7322 3.39495 22.0528 5.38737C23.3734 7.3798 24.0721 9.71972 24.0603 12.11C24.0445 15.2878 22.7752 18.3309 20.5281 20.5779C18.2811 22.8249 15.238 24.0943 12.0603 24.11ZM12.0603 1.82003C10.0346 1.81805 8.0538 2.41694 6.36853 3.54092C4.68325 4.6649 3.36921 6.26348 2.59263 8.13442C1.81606 10.0054 1.61185 12.0646 2.00583 14.0516C2.39981 16.0386 3.37429 17.8642 4.80598 19.2973C6.23767 20.7304 8.06224 21.7066 10.0489 22.1025C12.0355 22.4985 14.095 22.2963 15.9667 21.5215C17.8384 20.7468 19.4382 19.4343 20.5638 17.7501C21.6895 16.0659 22.2903 14.0857 22.2903 12.06C22.2876 9.34676 21.2093 6.74522 19.2917 4.82571C17.374 2.9062 14.7736 1.82532 12.0603 1.82003ZM20.1603 8.08003C20.0009 8.50661 19.7369 8.88634 19.3927 9.1844C19.0484 9.48246 18.6347 9.68931 18.1897 9.78598C17.7447 9.88264 17.2826 9.86603 16.8456 9.73767C16.4087 9.60931 16.011 9.3733 15.689 9.0513C15.367 8.72929 15.131 8.33159 15.0026 7.89467C14.8743 7.45775 14.8577 6.99559 14.9543 6.55058C15.051 6.10557 15.2579 5.69196 15.5559 5.34767C15.854 5.00337 16.2337 4.73943 16.6603 4.58003C15.4719 4.18082 14.1835 4.19493 13.0042 4.62005C11.8249 5.04518 10.8238 5.85638 10.1635 6.92199C9.50323 7.98761 9.22241 9.2451 9.36667 10.4904C9.51092 11.7357 10.0718 12.8957 10.9582 13.7821C11.8447 14.6685 13.0046 15.2294 14.2499 15.3737C15.4952 15.5179 16.7527 15.2371 17.8183 14.5768C18.8839 13.9165 19.6951 12.9154 20.1203 11.7361C20.5454 10.5568 20.5595 9.26838 20.1603 8.08003Z" fill="black"/>
</g>
<defs>
<clipPath id="clip0">
<rect width="47.11" height="24.11" fill="white"/>
</clipPath>
</defs>
</svg>
