<svg width="46" height="24" viewBox="0 0 46 24" fill="none" xmlns="http://www.w3.org/2000/svg">
<g clip-path="url(#clip0)">
<path d="M33.9202 4.19305e-06C31.5618 -0.00197351 29.2558 0.695693 27.2941 2.00472C25.3323 3.31375 23.8029 5.17529 22.8995 7.3538C21.9961 9.5323 21.7592 11.9298 22.2188 14.243C22.6784 16.5562 23.8139 18.6811 25.4815 20.3487C27.1492 22.0164 29.274 23.1518 31.5872 23.6114C33.9004 24.0711 36.2979 23.8342 38.4764 22.9307C40.6549 22.0273 42.5165 20.4979 43.8255 18.5362C45.1346 16.5744 45.8322 14.2684 45.8302 11.91C45.8249 8.7529 44.5684 5.72662 42.336 3.4942C40.1036 1.26179 37.0773 0.00529249 33.9202 4.19305e-06ZM33.9202 21.67C31.9923 21.67 30.1076 21.0984 28.5045 20.0275C26.9013 18.9566 25.6516 17.4345 24.9134 15.6535C24.1751 13.8725 23.9815 11.9126 24.3569 10.0215C24.7323 8.13051 25.6599 6.39321 27.0224 5.02925C28.385 3.66529 30.1213 2.7359 32.012 2.35857C33.9026 1.98123 35.8627 2.17289 37.6445 2.90931C39.4262 3.64573 40.9497 4.89386 42.0222 6.49592C43.0948 8.09799 43.6683 9.98206 43.6702 11.91C43.6702 14.4968 42.6433 16.9778 40.8151 18.8078C38.9869 20.6379 36.507 21.6674 33.9202 21.67Z" fill="black"/>
<path d="M27.3301 7.38998H40.5001C39.9971 6.65224 39.3714 6.00622 38.6501 5.47998H29.1801C28.4612 6.00899 27.8359 6.65457 27.3301 7.38998Z" fill="black"/>
<path d="M26 11H41.85C41.7717 10.3498 41.6138 9.71168 41.38 9.09998H26.45C26.223 9.71256 26.0719 10.3506 26 11Z" fill="black"/>
<path d="M26.45 14.78H41.38C41.6126 14.1645 41.7704 13.5232 41.85 12.87H26C26.0731 13.5224 26.2242 14.1636 26.45 14.78Z" fill="black"/>
<path d="M29.1801 18.35H38.6501C39.369 17.821 39.9943 17.1754 40.5001 16.44H27.3301C27.8359 17.1754 28.4612 17.821 29.1801 18.35Z" fill="black"/>
<path d="M11.9202 4.19305e-06C9.56183 -0.00197351 7.25584 0.695693 5.29408 2.00472C3.33231 3.31375 1.80295 5.17529 0.899509 7.3538C-0.00392658 9.5323 -0.240825 11.9298 0.218792 14.243C0.678409 16.5562 1.81388 18.6811 3.48153 20.3487C5.14917 22.0164 7.27403 23.1518 9.58721 23.6114C11.9004 24.0711 14.2979 23.8342 16.4764 22.9307C18.6549 22.0273 20.5165 20.4979 21.8255 18.5362C23.1345 16.5744 23.8322 14.2684 23.8302 11.91C23.8249 8.7529 22.5684 5.72662 20.336 3.4942C18.1036 1.26179 15.0773 0.00529249 11.9202 4.19305e-06ZM11.9202 21.67C9.99229 21.67 8.10763 21.0984 6.50447 20.0275C4.9013 18.9566 3.65162 17.4345 2.91337 15.6535C2.17512 13.8725 1.98146 11.9126 2.35685 10.0215C2.73225 8.13051 3.65985 6.39321 5.02242 5.02925C6.38498 3.66529 8.12133 2.7359 10.012 2.35857C11.9026 1.98123 13.8627 2.17289 15.6445 2.90931C17.4262 3.64573 18.9497 4.89386 20.0222 6.49592C21.0948 8.09799 21.6683 9.98206 21.6702 11.91C21.6702 14.4968 20.6433 16.9778 18.8151 18.8078C16.9869 20.6379 14.507 21.6674 11.9202 21.67Z" fill="black"/>
<path d="M5.33008 7.38998H18.5001C17.9971 6.65224 17.3714 6.00622 16.6501 5.47998H7.18008C6.46118 6.00899 5.83588 6.65457 5.33008 7.38998Z" fill="black"/>
<path d="M4 11H19.85C19.7717 10.3498 19.6138 9.71168 19.38 9.09998H4.45C4.22298 9.71256 4.07186 10.3506 4 11Z" fill="black"/>
<path d="M4.45 14.78H19.38C19.6126 14.1645 19.7704 13.5232 19.85 12.87H4C4.0731 13.5224 4.22418 14.1636 4.45 14.78Z" fill="black"/>
<path d="M7.18008 18.35H16.6501C17.369 17.821 17.9943 17.1754 18.5001 16.44H5.33008C5.83588 17.1754 6.46118 17.821 7.18008 18.35Z" fill="black"/>
</g>
<defs>
<clipPath id="clip0">
<rect width="45.83" height="23.83" fill="white"/>
</clipPath>
</defs>
</svg>
