<svg width="48" height="25" viewBox="0 0 48 25" fill="none" xmlns="http://www.w3.org/2000/svg">
<g clip-path="url(#clip0)">
<path d="M35.3302 24.67C32.8896 24.67 30.5038 23.9463 28.4745 22.5903C26.4452 21.2344 24.8636 19.3071 23.9296 17.0523C22.9956 14.7975 22.7512 12.3163 23.2273 9.92258C23.7035 7.52886 24.8788 5.33008 26.6045 3.6043C28.3303 1.87852 30.5291 0.703247 32.9228 0.227105C35.3165 -0.249036 37.7977 -0.00466305 40.0526 0.929322C42.3074 1.86331 44.2346 3.44496 45.5906 5.47426C46.9465 7.50356 47.6702 9.88937 47.6702 12.33C47.6676 15.602 46.3666 18.7391 44.053 21.0528C41.7394 23.3664 38.6022 24.6673 35.3302 24.67ZM35.3302 2.24C33.3346 2.24 31.3838 2.83176 29.7245 3.94047C28.0652 5.04917 26.772 6.62501 26.0083 8.46872C25.2446 10.3124 25.0448 12.3412 25.4341 14.2985C25.8234 16.2557 26.7844 18.0536 28.1955 19.4647C29.6066 20.8758 31.4045 21.8368 33.3618 22.2261C35.319 22.6154 37.3478 22.4156 39.1915 21.6519C41.0352 20.8883 42.6111 19.595 43.7198 17.9357C44.8285 16.2764 45.4202 14.3256 45.4202 12.33C45.415 9.65559 44.3502 7.09222 42.4591 5.20113C40.568 3.31003 38.0047 2.24528 35.3302 2.24Z" fill="black"/>
<path d="M30.18 19.35L31.18 13.62L27 9.55L32.76 8.72L35.33 3.5L37.91 8.72L43.67 9.55L39.5 13.62L40.5 19.35L35.35 16.64L30.18 19.35ZM35.33 15L38.5 16.67L37.89 13.14L40.45 10.65L36.91 10.13L35.33 6.93L33.75 10.13L30.21 10.65L32.77 13.14L32.17 16.67L35.33 15Z" fill="black"/>
<path d="M12.3302 24.67C9.88962 24.67 7.50381 23.9463 5.4745 22.5903C3.4452 21.2344 1.86355 19.3071 0.929567 17.0523C-0.00441891 14.7975 -0.248792 12.3163 0.22735 9.92258C0.703491 7.52886 1.87876 5.33008 3.60454 3.6043C5.33032 1.87852 7.5291 0.703247 9.92283 0.227105C12.3166 -0.249036 14.7977 -0.00466305 17.0526 0.929322C19.3074 1.86331 21.2346 3.44496 22.5906 5.47426C23.9465 7.50356 24.6702 9.88937 24.6702 12.33C24.6676 15.602 23.3666 18.7391 21.053 21.0528C18.7394 23.3664 15.6022 24.6673 12.3302 24.67ZM12.3302 2.24C10.3346 2.24 8.38383 2.83176 6.72454 3.94047C5.06524 5.04917 3.77198 6.62501 3.0083 8.46872C2.24461 10.3124 2.04479 12.3412 2.43412 14.2985C2.82344 16.2557 3.78442 18.0536 5.19553 19.4647C6.60664 20.8758 8.40451 21.8368 10.3618 22.2261C12.319 22.6154 14.3478 22.4156 16.1915 21.6519C18.0352 20.8883 19.6111 19.595 20.7198 17.9357C21.8285 16.2764 22.4202 14.3256 22.4202 12.33C22.415 9.65559 21.3502 7.09222 19.4591 5.20113C17.568 3.31003 15.0047 2.24528 12.3302 2.24Z" fill="black"/>
<path d="M7.18 19.35L8.18 13.62L4 9.55L9.76 8.72L12.33 3.5L14.91 8.72L20.67 9.55L16.5 13.62L17.5 19.35L12.35 16.64L7.18 19.35ZM12.33 15L15.5 16.67L14.89 13.14L17.45 10.65L13.91 10.13L12.33 6.93L10.75 10.13L7.21 10.65L9.77 13.14L9.17 16.67L12.33 15Z" fill="black"/>
</g>
<defs>
<clipPath id="clip0">
<rect width="47.67" height="24.67" fill="white"/>
</clipPath>
</defs>
</svg>
