<svg width="44" height="25" viewBox="0 0 44 25" fill="none" xmlns="http://www.w3.org/2000/svg">
<g clip-path="url(#clip0)">
<path d="M3.75045 5.80999C6.89045 9.74999 14.0904 12.66 17.8204 17.45C16.8484 18.7901 15.5823 19.8897 14.1193 20.6646C12.6562 21.4394 11.0352 21.8689 9.38045 21.92C3.90045 20.83 1.00045 11.06 3.75045 5.80999ZM0.560448 5.27999C-0.0204229 7.61575 -0.134816 10.0432 0.223819 12.4232C0.582454 14.8032 1.40707 17.0891 2.65045 19.15C4.25471 21.7291 6.80204 23.5804 9.75045 24.31C11.7596 23.9592 13.6838 23.2295 15.4204 22.16C19.7304 19.33 20.9104 17.3 20.9104 17.3C17.3304 13.15 15.7104 12.06 11.2404 8.59999C6.42045 4.85999 3.81045 2.56999 2.73045 -7.22334e-06C2.64045 -0.200007 1.53045 1.68999 0.560448 5.27999Z" fill="black"/>
<path d="M39.6707 5.80999C42.4307 11.06 39.5207 20.81 34.0407 21.92C32.386 21.8689 30.7649 21.4394 29.3019 20.6646C27.8389 19.8897 26.5728 18.7901 25.6007 17.45C29.3407 12.66 36.5307 9.74999 39.6707 5.80999ZM40.6707 0.0199928C39.6107 2.56999 37.0007 4.85999 32.1807 8.59999C27.7207 12.06 26.0907 13.15 22.5107 17.3C22.5107 17.3 23.7007 19.3 28.0007 22.16C29.7381 23.228 31.662 23.9575 33.6707 24.31C35.1133 24.0343 36.4855 23.4707 37.7054 22.6529C38.9252 21.835 39.9678 20.7797 40.7707 19.55C43.2843 15.2418 44.0332 10.1281 42.8607 5.27999C41.8907 1.68999 40.7807 -0.200007 40.6907 -7.22334e-06L40.6707 0.0199928Z" fill="black"/>
</g>
<defs>
<clipPath id="clip0">
<rect width="43.42" height="24.32" fill="white"/>
</clipPath>
</defs>
</svg>
