<svg width="47" height="24" viewBox="0 0 47 24" fill="none" xmlns="http://www.w3.org/2000/svg">
<g clip-path="url(#clip0)">
<path d="M35 0C32.6266 0 30.3066 0.703788 28.3332 2.02236C26.3598 3.34094 24.8217 5.21509 23.9135 7.4078C23.0052 9.60051 22.7676 12.0133 23.2306 14.3411C23.6936 16.6689 24.8365 18.8071 26.5147 20.4853C28.193 22.1635 30.3311 23.3064 32.6589 23.7694C34.9867 24.2324 37.3995 23.9948 39.5922 23.0866C41.7849 22.1783 43.6591 20.6402 44.9776 18.6668C46.2962 16.6935 47 14.3734 47 12C47 8.8174 45.7357 5.76515 43.4853 3.51472C41.2348 1.26428 38.1826 0 35 0V0ZM35 3.4C36.7009 3.4 38.3636 3.90438 39.7779 4.84936C41.1922 5.79434 42.2945 7.13748 42.9454 8.70892C43.5963 10.2804 43.7666 12.0095 43.4348 13.6778C43.1029 15.346 42.2839 16.8784 41.0811 18.0811C39.8784 19.2838 38.346 20.1029 36.6778 20.4348C35.0095 20.7666 33.2804 20.5963 31.7089 19.9454C30.1375 19.2945 28.7943 18.1922 27.8494 16.7779C26.9044 15.3636 26.4 13.7009 26.4 12C26.4 9.71914 27.3061 7.53169 28.9189 5.91888C30.5317 4.30607 32.7191 3.4 35 3.4ZM35 4.83C33.5819 4.83 32.1957 5.25051 31.0166 6.03836C29.8375 6.82621 28.9185 7.94601 28.3758 9.25616C27.8331 10.5663 27.6911 12.008 27.9678 13.3988C28.2444 14.7896 28.9273 16.0672 29.93 17.07C30.9328 18.0727 32.2104 18.7556 33.6012 19.0322C34.9921 19.3089 36.4337 19.1669 37.7438 18.6242C39.054 18.0815 40.1738 17.1625 40.9616 15.9834C41.7495 14.8043 42.17 13.4181 42.17 12C42.17 10.0984 41.4146 8.27468 40.07 6.93004C38.7253 5.58541 36.9016 4.83 35 4.83ZM35 7.14C35.9612 7.14 36.9009 7.42503 37.7001 7.95906C38.4993 8.49308 39.1222 9.25211 39.4901 10.1402C39.8579 11.0282 39.9541 12.0054 39.7666 12.9481C39.5791 13.8909 39.1162 14.7569 38.4365 15.4365C37.7569 16.1162 36.8909 16.5791 35.9481 16.7666C35.0054 16.9541 34.0282 16.8579 33.1402 16.4901C32.2521 16.1222 31.4931 15.4993 30.9591 14.7001C30.425 13.9008 30.14 12.9612 30.14 12C30.1426 10.7119 30.6555 9.47723 31.5664 8.56638C32.4772 7.65552 33.7119 7.14264 35 7.14ZM35 9.14C34.4319 9.14 33.8767 9.30858 33.4045 9.62439C32.9323 9.94019 32.5645 10.389 32.3475 10.914C32.1306 11.439 32.0744 12.0166 32.1859 12.5736C32.2975 13.1306 32.5718 13.642 32.9742 14.0429C33.3765 14.4439 33.8889 14.7165 34.4463 14.8261C35.0036 14.9357 35.581 14.8774 36.1053 14.6587C36.6295 14.4399 37.077 14.0705 37.3912 13.5972C37.7053 13.1239 37.872 12.5681 37.87 12C37.8713 11.6227 37.798 11.2489 37.6542 10.9001C37.5105 10.5513 37.2991 10.2344 37.0323 9.96766C36.7656 9.70089 36.4487 9.48954 36.0999 9.34577C35.7511 9.20201 35.3773 9.12868 35 9.13V9.14ZM35 10.41C35.3169 10.41 35.6266 10.5041 35.8899 10.6804C36.1533 10.8566 36.3583 11.1071 36.4791 11.4C36.5999 11.693 36.631 12.0152 36.5685 12.3258C36.5059 12.6365 36.3526 12.9216 36.1278 13.1449C35.903 13.3683 35.617 13.5199 35.306 13.5805C34.9949 13.6411 34.6729 13.608 34.3807 13.4853C34.0886 13.3627 33.8394 13.1561 33.6648 12.8916C33.4902 12.6272 33.398 12.3169 33.4 12C33.4 11.5757 33.5686 11.1687 33.8686 10.8686C34.1687 10.5686 34.5757 10.4 35 10.4V10.41Z" fill="#010101"/>
<path d="M12 0C9.62663 0 7.30655 0.703788 5.33316 2.02236C3.35977 3.34094 1.8217 5.21509 0.913451 7.4078C0.00519943 9.60051 -0.232441 12.0133 0.230582 14.3411C0.693605 16.6689 1.83649 18.8071 3.51472 20.4853C5.19295 22.1635 7.33115 23.3064 9.65892 23.7694C11.9867 24.2324 14.3995 23.9948 16.5922 23.0866C18.7849 22.1783 20.6591 20.6402 21.9776 18.6668C23.2962 16.6935 24 14.3734 24 12C24 8.8174 22.7357 5.76515 20.4853 3.51472C18.2348 1.26428 15.1826 0 12 0V0ZM12 3.4C13.7009 3.4 15.3636 3.90438 16.7779 4.84936C18.1922 5.79434 19.2945 7.13748 19.9454 8.70892C20.5963 10.2804 20.7666 12.0095 20.4348 13.6778C20.1029 15.346 19.2839 16.8784 18.0811 18.0811C16.8784 19.2838 15.346 20.1029 13.6778 20.4348C12.0095 20.7666 10.2804 20.5963 8.70893 19.9454C7.13748 19.2945 5.79435 18.1922 4.84937 16.7779C3.90439 15.3636 3.40001 13.7009 3.40001 12C3.40001 9.71914 4.30607 7.53169 5.91889 5.91888C7.5317 4.30607 9.71914 3.4 12 3.4ZM12 4.83C10.5819 4.83 9.19567 5.25051 8.01657 6.03836C6.83747 6.82621 5.91847 7.94601 5.37579 9.25616C4.83311 10.5663 4.69112 12.008 4.96777 13.3988C5.24443 14.7896 5.92731 16.0672 6.93005 17.07C7.93279 18.0727 9.21036 18.7556 10.6012 19.0322C11.9921 19.3089 13.4337 19.1669 14.7438 18.6242C16.054 18.0815 17.1738 17.1625 17.9616 15.9834C18.7495 14.8043 19.17 13.4181 19.17 12C19.17 11.0584 18.9845 10.1261 18.6242 9.25616C18.2639 8.38626 17.7358 7.59584 17.07 6.93004C16.4042 6.26425 15.6138 5.73611 14.7438 5.37578C13.8739 5.01546 12.9416 4.83 12 4.83ZM12 7.14C12.9612 7.14 13.9009 7.42503 14.7001 7.95906C15.4993 8.49308 16.1222 9.25211 16.4901 10.1402C16.8579 11.0282 16.9541 12.0054 16.7666 12.9481C16.5791 13.8909 16.1162 14.7569 15.4365 15.4365C14.7569 16.1162 13.8909 16.5791 12.9481 16.7666C12.0054 16.9541 11.0282 16.8579 10.1402 16.4901C9.25212 16.1222 8.49309 15.4993 7.95906 14.7001C7.42504 13.9008 7.14001 12.9612 7.14001 12C7.14265 10.7119 7.65553 9.47723 8.56639 8.56638C9.47724 7.65552 10.7119 7.14264 12 7.14ZM12 9.14C11.4319 9.14 10.8767 9.30858 10.4045 9.62439C9.9323 9.94019 9.56446 10.389 9.34753 10.914C9.1306 11.439 9.07435 12.0166 9.18591 12.5736C9.29746 13.1306 9.57179 13.642 9.97417 14.0429C10.3765 14.4439 10.8889 14.7165 11.4463 14.8261C12.0036 14.9357 12.581 14.8774 13.1053 14.6587C13.6295 14.4399 14.077 14.0705 14.3912 13.5972C14.7053 13.1239 14.872 12.5681 14.87 12C14.8713 11.6227 14.798 11.2489 14.6542 10.9001C14.5105 10.5513 14.2991 10.2344 14.0323 9.96766C13.7656 9.70089 13.4487 9.48954 13.0999 9.34577C12.7511 9.20201 12.3773 9.12868 12 9.13V9.14ZM12 10.41C12.3169 10.41 12.6266 10.5041 12.8899 10.6804C13.1533 10.8566 13.3583 11.1071 13.4791 11.4C13.5999 11.693 13.631 12.0152 13.5685 12.3258C13.5059 12.6365 13.3526 12.9216 13.1278 13.1449C12.903 13.3683 12.617 13.5199 12.306 13.5805C11.9949 13.6411 11.6729 13.608 11.3808 13.4853C11.0886 13.3627 10.8394 13.1561 10.6648 12.8916C10.4902 12.6272 10.398 12.3169 10.4 12C10.4 11.5757 10.5686 11.1687 10.8686 10.8686C11.1687 10.5686 11.5757 10.4 12 10.4V10.41Z" fill="#010101"/>
</g>
<defs>
<clipPath id="clip0">
<rect width="47" height="24" fill="white"/>
</clipPath>
</defs>
</svg>
