<svg width="49" height="25" viewBox="0 0 49 25" fill="none" xmlns="http://www.w3.org/2000/svg">
<path d="M36 0C33.6266 0 31.3066 0.703788 29.3332 2.02236C27.3598 3.34094 25.8217 5.21509 24.9135 7.4078C24.0052 9.60051 23.7676 12.0133 24.2306 14.3411C24.6936 16.6689 25.8365 18.8071 27.5147 20.4853C29.193 22.1635 31.3311 23.3064 33.6589 23.7694C35.9867 24.2324 38.3995 23.9948 40.5922 23.0866C42.7849 22.1783 44.6591 20.6402 45.9776 18.6668C47.2962 16.6935 48 14.3734 48 12C47.9868 8.82146 46.7183 5.77685 44.4707 3.52926C42.2232 1.28167 39.1785 0.0131618 36 0V0ZM36 23.51C33.7349 23.5021 31.5228 22.8237 29.6427 21.5603C27.7626 20.2969 26.2987 18.5052 25.4355 16.4109C24.5724 14.3167 24.3486 12.0138 24.7924 9.79256C25.2363 7.57133 26.3279 5.53125 27.9296 3.92956C29.5313 2.32786 31.5713 1.23627 33.7926 0.792421C36.0138 0.348575 38.3167 0.572346 40.4109 1.43552C42.5052 2.2987 44.2969 3.76262 45.5603 5.64271C46.8237 7.5228 47.5021 9.73487 47.51 12C47.514 13.5126 47.2189 15.0111 46.6419 16.4094C46.0649 17.8076 45.2172 19.078 44.1476 20.1476C43.078 21.2172 41.8076 22.0649 40.4094 22.6419C39.0111 23.2189 37.5126 23.514 36 23.51Z" fill="black"/>
<path d="M45.0999 8.07002C45.0857 8.03567 45.0648 8.0045 45.0385 7.97831C45.0121 7.95213 44.9808 7.93145 44.9464 7.91749C44.9119 7.90353 44.875 7.89656 44.8379 7.89699C44.8007 7.89743 44.764 7.90526 44.7299 7.92002L37.4799 11.09C37.3375 10.8692 37.1458 10.6843 36.9199 10.55L39.7999 3.18002C39.8145 3.14694 39.8221 3.11118 39.8221 3.07502C39.8221 3.03886 39.8145 3.0031 39.7999 2.97002C39.7683 2.901 39.7108 2.84715 39.6399 2.82002C38.4282 2.35131 37.1359 2.12596 35.837 2.15685C34.5381 2.18773 33.258 2.47425 32.0699 3.00002C32.0356 3.01421 32.0044 3.0351 31.9782 3.06147C31.952 3.08783 31.9314 3.11915 31.9174 3.15359C31.9034 3.18802 31.8965 3.2249 31.8969 3.26206C31.8973 3.29921 31.9052 3.33591 31.9199 3.37002L35.0899 10.62C34.8713 10.7651 34.687 10.9562 34.5499 11.18L27.1799 8.27002C27.1122 8.24472 27.0376 8.24472 26.9699 8.27002C26.9022 8.29841 26.8483 8.35228 26.8199 8.42002C26.3482 9.63285 26.1213 10.9271 26.1522 12.228C26.1831 13.529 26.4712 14.8109 26.9999 16C27.0236 16.0494 27.0604 16.0913 27.1062 16.1213C27.152 16.1513 27.2052 16.1681 27.2599 16.17C27.2959 16.1803 27.334 16.1803 27.3699 16.17L34.5899 13C34.7323 13.2209 34.924 13.4057 35.1499 13.54L32.2699 20.91C32.2448 20.9812 32.2448 21.0588 32.2699 21.13C32.3007 21.1961 32.3538 21.2492 32.4199 21.28C33.5672 21.7285 34.7881 21.9591 36.0199 21.96C37.3976 21.9652 38.7607 21.6789 40.0199 21.12C40.0543 21.106 40.0854 21.0851 40.1113 21.0585C40.1373 21.0319 40.1574 21.0003 40.1706 20.9655C40.1837 20.9308 40.1895 20.8937 40.1877 20.8567C40.1859 20.8196 40.1764 20.7833 40.1599 20.75L36.9999 13.48C37.223 13.3403 37.4084 13.148 37.5399 12.92L44.9099 15.8H45.0099H45.1299C45.1967 15.7653 45.2496 15.7089 45.2799 15.64C45.7513 14.4289 45.9781 13.1363 45.9472 11.837C45.9163 10.5377 45.6284 9.2574 45.0999 8.07002ZM27.3799 15.52C26.5184 13.4056 26.4721 11.0467 27.2499 8.90002L30.4099 10.14C29.9782 11.4432 30.0064 12.8551 30.4899 14.14L27.3799 15.52ZM33.9199 6.52002L32.5499 3.38002C33.6463 2.93626 34.8172 2.70548 35.9999 2.70002C37.0675 2.6973 38.1272 2.8835 39.1299 3.25002L37.9299 6.41002C36.6244 5.97096 35.2069 5.99924 33.9199 6.49002V6.52002ZM38.1599 17.61L39.5199 20.72C38.4117 21.1707 37.2263 21.4017 36.0299 21.4C34.9634 21.4002 33.9047 21.2176 32.8999 20.86L34.1399 17.69C35.4527 18.1169 36.8725 18.078 38.1599 17.58V17.61ZM44.8299 15.2L41.6599 13.96C42.0966 12.6575 42.0683 11.244 41.5799 9.96002L44.6899 8.59002C45.5398 10.6924 45.5896 13.0334 44.8299 15.17V15.2Z" fill="black"/>
<path d="M12 0C9.62663 0 7.30655 0.703788 5.33316 2.02236C3.35977 3.34094 1.8217 5.21509 0.913451 7.4078C0.00519943 9.60051 -0.232441 12.0133 0.230582 14.3411C0.693605 16.6689 1.83649 18.8071 3.51472 20.4853C5.19295 22.1635 7.33115 23.3064 9.65892 23.7694C11.9867 24.2324 14.3995 23.9948 16.5922 23.0866C18.7849 22.1783 20.6591 20.6402 21.9776 18.6668C23.2962 16.6935 24 14.3734 24 12C23.9868 8.82146 22.7183 5.77685 20.4707 3.52926C18.2232 1.28167 15.1786 0.0131618 12 0V0ZM12 23.51C9.73488 23.5021 7.52281 22.8237 5.64272 21.5603C3.76263 20.2969 2.2987 18.5052 1.43553 16.4109C0.572352 14.3167 0.34858 12.0138 0.792427 9.79256C1.23627 7.57133 2.32787 5.53125 3.92956 3.92956C5.53126 2.32786 7.57134 1.23627 9.79257 0.792421C12.0138 0.348575 14.3167 0.572346 16.4109 1.43552C18.5052 2.2987 20.2969 3.76262 21.5603 5.64271C22.8237 7.5228 23.5021 9.73487 23.51 12C23.514 13.5126 23.219 15.0111 22.6419 16.4094C22.0649 17.8076 21.2172 19.078 20.1476 20.1476C19.078 21.2172 17.8076 22.0649 16.4094 22.6419C15.0111 23.2189 13.5126 23.514 12 23.51Z" fill="black"/>
<path d="M21.0999 8.07002C21.0857 8.03567 21.0648 8.0045 21.0385 7.97831C21.0121 7.95213 20.9808 7.93145 20.9464 7.91749C20.9119 7.90353 20.875 7.89656 20.8379 7.89699C20.8007 7.89743 20.764 7.90526 20.7299 7.92002L13.4799 11.09C13.3375 10.8692 13.1458 10.6843 12.9199 10.55L15.7999 3.18002C15.8145 3.14694 15.8221 3.11118 15.8221 3.07502C15.8221 3.03886 15.8145 3.0031 15.7999 2.97002C15.7683 2.901 15.7108 2.84715 15.6399 2.82002C14.4282 2.35131 13.1359 2.12596 11.837 2.15685C10.5381 2.18773 9.25805 2.47425 8.06992 3.00002C8.03558 3.01421 8.00441 3.0351 7.97822 3.06147C7.95203 3.08783 7.93136 3.11915 7.9174 3.15359C7.90343 3.18802 7.89647 3.2249 7.8969 3.26206C7.89734 3.29921 7.90516 3.33591 7.91992 3.37002L11.0899 10.62C10.8713 10.7651 10.687 10.9562 10.5499 11.18L3.17992 8.27002C3.11221 8.24472 3.03764 8.24472 2.96992 8.27002C2.90219 8.29841 2.84832 8.35228 2.81992 8.42002C2.34824 9.63285 2.1213 10.9271 2.15219 12.228C2.18309 13.529 2.4712 14.8109 2.99992 16C3.02362 16.0494 3.06038 16.0913 3.10621 16.1213C3.15204 16.1513 3.2052 16.1681 3.25992 16.17C3.29587 16.1803 3.33398 16.1803 3.36992 16.17L10.5899 13C10.7323 13.2209 10.924 13.4057 11.1499 13.54L8.26993 20.89C8.24476 20.9612 8.24476 21.0388 8.26993 21.11C8.30073 21.1761 8.35384 21.2292 8.41992 21.26C9.56723 21.7085 10.7881 21.9391 12.0199 21.94C13.3976 21.9452 14.7607 21.6589 16.0199 21.1C16.0543 21.086 16.0854 21.0651 16.1113 21.0385C16.1373 21.0119 16.1574 20.9803 16.1706 20.9455C16.1837 20.9108 16.1895 20.8737 16.1877 20.8367C16.1859 20.7996 16.1764 20.7633 16.1599 20.73L12.9999 13.48C13.223 13.3403 13.4084 13.148 13.5399 12.92L20.9099 15.8H21.0099H21.1299C21.1967 15.7653 21.2496 15.7089 21.2799 15.64C21.7513 14.4289 21.9781 13.1363 21.9472 11.837C21.9163 10.5377 21.6284 9.2574 21.0999 8.07002ZM3.37992 15.52C2.5184 13.4056 2.47208 11.0467 3.24992 8.90002L6.40992 10.14C5.97818 11.4432 6.00642 12.8551 6.48992 14.14L3.37992 15.52ZM9.91992 6.52002L8.54992 3.38002C9.64629 2.93626 10.8172 2.70548 11.9999 2.70002C13.0675 2.6973 14.1272 2.8835 15.1299 3.25002L13.9299 6.41002C12.6244 5.97096 11.2069 5.99924 9.91992 6.49002V6.52002ZM14.1599 17.61L15.5199 20.72C14.4117 21.1707 13.2263 21.4017 12.0299 21.4C10.9634 21.4002 9.90472 21.2176 8.89992 20.86L10.1399 17.69C11.4527 18.1169 12.8725 18.078 14.1599 17.58V17.61ZM20.8299 15.2L17.6599 13.96C18.0966 12.6575 18.0683 11.244 17.5799 9.96002L20.6899 8.59002C21.5398 10.6924 21.5896 13.0334 20.8299 15.17V15.2Z" fill="black"/>
</svg>
