<svg width="51" height="26" viewBox="0 0 51 26" fill="none" xmlns="http://www.w3.org/2000/svg">
<g clip-path="url(#clip0)">
<path d="M13 8C12.0111 8 11.0444 8.29325 10.2222 8.84265C9.39991 9.39206 8.75904 10.173 8.3806 11.0866C8.00217 12.0002 7.90315 13.0055 8.09608 13.9755C8.289 14.9454 8.76521 15.8363 9.46447 16.5355C10.1637 17.2348 11.0546 17.711 12.0246 17.9039C12.9945 18.0969 13.9998 17.9978 14.9134 17.6194C15.8271 17.241 16.6079 16.6001 17.1574 15.7779C17.7068 14.9556 18 13.9889 18 13C18 11.6739 17.4732 10.4021 16.5355 9.46447C15.5979 8.52678 14.3261 8 13 8ZM14.5 12C14.2033 12 13.9133 11.912 13.6666 11.7472C13.42 11.5824 13.2277 11.3481 13.1142 11.074C13.0007 10.7999 12.9709 10.4983 13.0288 10.2074C13.0867 9.91639 13.2296 9.64912 13.4393 9.43934C13.6491 9.22956 13.9164 9.0867 14.2074 9.02882C14.4983 8.97094 14.7999 9.00065 15.074 9.11418C15.3481 9.22771 15.5824 9.41997 15.7472 9.66665C15.912 9.91332 16 10.2033 16 10.5C16 10.8978 15.842 11.2794 15.5607 11.5607C15.2794 11.842 14.8978 12 14.5 12Z" fill="#1D1D1B"/>
<path d="M37.9999 -2.9701e-05C35.1708 0.00187098 32.4196 0.926626 30.1636 2.6339C27.9077 4.34117 26.2703 6.73776 25.4999 9.45997C24.6454 6.44031 22.7273 3.83172 20.0998 2.11567C17.4723 0.399632 14.3127 -0.308007 11.2042 0.123373C8.09579 0.554753 5.2483 2.09603 3.18737 4.46271C1.12645 6.8294 -0.00878906 9.86172 -0.00878906 13C-0.00878906 16.1382 1.12645 19.1705 3.18737 21.5372C5.2483 23.9039 8.09579 25.4452 11.2042 25.8766C14.3127 26.3079 17.4723 25.6003 20.0998 23.8843C22.7273 22.1682 24.6454 19.5596 25.4999 16.54C26.1587 18.8676 27.4538 20.9653 29.2396 22.597C31.0254 24.2288 33.2311 25.3299 35.6086 25.7765C37.986 26.2231 40.441 25.9975 42.6972 25.1251C44.9534 24.2526 46.9215 22.7679 48.38 20.838C49.8385 18.9081 50.7296 16.6096 50.9531 14.2009C51.1766 11.7922 50.7235 9.36888 49.6449 7.2036C48.5663 5.03833 46.905 3.21694 44.8477 1.94433C42.7905 0.671712 40.419 -0.00165458 37.9999 -2.9701e-05ZM12.9999 25C10.6266 25 8.30649 24.2962 6.3331 22.9776C4.35971 21.659 2.82164 19.7849 1.91339 17.5922C1.00514 15.3995 0.767498 12.9867 1.23052 10.6589C1.69354 8.33111 2.83643 6.19292 4.51466 4.51469C6.19289 2.83646 8.33109 1.69357 10.6589 1.23055C12.9866 0.767524 15.3994 1.00516 17.5921 1.91342C19.7849 2.82167 21.659 4.35974 22.9776 6.33313C24.2962 8.30652 24.9999 10.6266 24.9999 13C24.9999 16.1826 23.7357 19.2348 21.4852 21.4853C19.2348 23.7357 16.1825 25 12.9999 25ZM37.9999 25C35.6266 25 33.3065 24.2962 31.3331 22.9776C29.3597 21.659 27.8216 19.7849 26.9134 17.5922C26.0051 15.3995 25.7675 12.9867 26.2305 10.6589C26.6935 8.33111 27.8364 6.19292 29.5147 4.51469C31.1929 2.83646 33.3311 1.69357 35.6589 1.23055C37.9866 0.767524 40.3994 1.00516 42.5921 1.91342C44.7849 2.82167 46.659 4.35974 47.9776 6.33313C49.2962 8.30652 49.9999 10.6266 49.9999 13C49.9999 16.1826 48.7357 19.2348 46.4852 21.4853C44.2348 23.7357 41.1825 25 37.9999 25Z" fill="#1D1D1B"/>
<path d="M38 8C37.0111 8 36.0444 8.29325 35.2222 8.84265C34.3999 9.39206 33.759 10.173 33.3806 11.0866C33.0022 12.0002 32.9031 13.0055 33.0961 13.9755C33.289 14.9454 33.7652 15.8363 34.4645 16.5355C35.1637 17.2348 36.0546 17.711 37.0245 17.9039C37.9945 18.0969 38.9998 17.9978 39.9134 17.6194C40.8271 17.241 41.6079 16.6001 42.1574 15.7779C42.7068 14.9556 43 13.9889 43 13C43 11.6739 42.4732 10.4021 41.5355 9.46447C40.5979 8.52678 39.3261 8 38 8ZM39.5 12C39.2033 12 38.9133 11.912 38.6666 11.7472C38.42 11.5824 38.2277 11.3481 38.1142 11.074C38.0007 10.7999 37.9709 10.4983 38.0288 10.2074C38.0867 9.91639 38.2296 9.64912 38.4393 9.43934C38.6491 9.22956 38.9164 9.0867 39.2074 9.02882C39.4983 8.97094 39.7999 9.00065 40.074 9.11418C40.3481 9.22771 40.5824 9.41997 40.7472 9.66665C40.912 9.91332 41 10.2033 41 10.5C41 10.8978 40.842 11.2794 40.5607 11.5607C40.2794 11.842 39.8978 12 39.5 12Z" fill="#1D1D1B"/>
</g>
<defs>
<clipPath id="clip0">
<rect width="51" height="26" fill="white"/>
</clipPath>
</defs>
</svg>
