<svg width="50" height="26" viewBox="0 0 50 26" fill="none" xmlns="http://www.w3.org/2000/svg">
<g clip-path="url(#clip0)">
<path d="M36.88 24.76C43.4411 24.76 48.76 19.4411 48.76 12.88C48.76 6.31886 43.4411 1 36.88 1C30.3189 1 25 6.31886 25 12.88C25 19.4411 30.3189 24.76 36.88 24.76Z" stroke="black" stroke-width="2" stroke-miterlimit="10"/>
<path d="M36.8699 15.36C38.3831 15.36 39.6099 14.1333 39.6099 12.62C39.6099 11.1067 38.3831 9.88 36.8699 9.88C35.3566 9.88 34.1299 11.1067 34.1299 12.62C34.1299 14.1333 35.3566 15.36 36.8699 15.36Z" fill="black"/>
<path d="M36.8798 2.76001C34.8782 2.76001 32.9216 3.35354 31.2574 4.46554C29.5932 5.57754 28.2961 7.15807 27.5301 9.00725C26.7642 10.8564 26.5637 12.8912 26.9542 14.8543C27.3447 16.8174 28.3085 18.6206 29.7238 20.0359C31.1392 21.4512 32.9424 22.4151 34.9055 22.8056C36.8685 23.196 38.9033 22.9956 40.7525 22.2297C42.6017 21.4637 44.1822 20.1666 45.2942 18.5024C46.4062 16.8382 46.9998 14.8816 46.9998 12.88C46.9998 10.196 45.9336 7.62196 44.0357 5.72409C42.1378 3.82622 39.5638 2.76001 36.8798 2.76001ZM36.8798 16.76C33.0098 16.76 29.8798 12.55 29.8798 12.55C29.8798 12.55 33.0098 8.35001 36.8798 8.35001C40.7498 8.35001 43.8798 12.55 43.8798 12.55C43.8798 12.55 40.7898 16.74 36.9098 16.74L36.8798 16.76Z" fill="black"/>
<path d="M12.88 24.76C19.4411 24.76 24.76 19.4411 24.76 12.88C24.76 6.31886 19.4411 1 12.88 1C6.31886 1 1 6.31886 1 12.88C1 19.4411 6.31886 24.76 12.88 24.76Z" stroke="black" stroke-width="2" stroke-miterlimit="10"/>
<path d="M12.8699 15.36C14.3831 15.36 15.6099 14.1333 15.6099 12.62C15.6099 11.1067 14.3831 9.88 12.8699 9.88C11.3566 9.88 10.1299 11.1067 10.1299 12.62C10.1299 14.1333 11.3566 15.36 12.8699 15.36Z" fill="black"/>
<path d="M12.8798 2.76001C10.8782 2.76001 8.92163 3.35354 7.2574 4.46554C5.59317 5.57754 4.29607 7.15807 3.53011 9.00725C2.76415 10.8564 2.56374 12.8912 2.95422 14.8543C3.34471 16.8174 4.30854 18.6206 5.72385 20.0359C7.13916 21.4512 8.94237 22.4151 10.9055 22.8056C12.8685 23.196 14.9033 22.9956 16.7525 22.2297C18.6017 21.4637 20.1822 20.1666 21.2942 18.5024C22.4062 16.8382 22.9998 14.8816 22.9998 12.88C22.9998 11.551 22.738 10.2351 22.2294 9.00725C21.7209 7.77944 20.9754 6.66382 20.0357 5.72409C19.096 4.78436 17.9803 4.03893 16.7525 3.53035C15.5247 3.02177 14.2087 2.76001 12.8798 2.76001ZM12.8798 16.76C9.00977 16.76 5.87977 12.55 5.87977 12.55C5.87977 12.55 9.00977 8.35001 12.8798 8.35001C16.7498 8.35001 19.8798 12.55 19.8798 12.55C19.8798 12.55 16.7898 16.74 12.9098 16.74L12.8798 16.76Z" fill="black"/>
</g>
<defs>
<clipPath id="clip0">
<rect width="49.75" height="25.75" fill="white"/>
</clipPath>
</defs>
</svg>
